<?xml version="1.0" encoding="UTF-8" standalone="no"?>
<!DOCTYPE svg PUBLIC "-//W3C//DTD SVG 1.1//EN" "http://www.w3.org/Graphics/SVG/1.1/DTD/svg11.dtd">
<svg width="100%" height="100%" viewBox="0 0 211 126" version="1.1" xmlns="http://www.w3.org/2000/svg" xmlns:xlink="http://www.w3.org/1999/xlink" xml:space="preserve" xmlns:serif="http://www.serif.com/" style="fill-rule:evenodd;clip-rule:evenodd;stroke-linejoin:round;stroke-miterlimit:2;">
    <g transform="matrix(0.24,0,0,0.24,0,0)">
        <g transform="matrix(4.16667,0,0,4.16667,0,0)">
            <path d="M112.479,22.87L105.868,19.989C105.381,19.776 104.82,19.823 104.374,20.116C103.928,20.408 103.661,20.904 103.661,21.435L103.661,33.59C103.661,34.461 104.365,35.167 105.238,35.167C106.112,35.167 106.818,34.461 106.818,33.59L106.818,28.23L112.479,25.764C113.053,25.512 113.428,24.945 113.428,24.316C113.428,23.69 113.053,23.119 112.479,22.87Z" style="fill:rgb(242,99,33);fill-rule:nonzero;"/>
            <path d="M125.904,53.02C124.973,53.921 123.48,53.374 123.111,52.185L120.377,33.72C120.285,33.102 119.756,32.643 119.127,32.643L114.078,32.643C113.381,32.643 112.816,33.208 112.816,33.905L112.816,37.694L109.023,37.694L109.023,33.905C109.023,33.208 108.461,32.643 107.762,32.643L102.713,32.643C102.015,32.643 101.449,33.208 101.449,33.905L101.449,37.694L97.661,37.694L97.661,33.905C97.661,33.208 97.096,32.643 96.397,32.643L91.348,32.643C90.722,32.643 90.19,33.102 90.098,33.72L87.376,52.093L87.36,51.602C87.36,53.056 85.786,53.91 84.706,53.177C80.256,48.262 77.536,41.752 77.536,34.614C77.536,19.341 89.964,6.913 105.238,6.913C120.512,6.913 132.938,19.341 132.938,34.614C132.938,41.679 130.274,48.122 125.904,53.02ZM105.238,0.599C86.481,0.599 71.222,15.858 71.222,34.614C71.222,50.689 82.433,64.185 97.445,67.72C98.994,67.962 100.187,66.613 100.187,65.492L100.187,57.265C100.187,54.476 102.448,52.215 105.238,52.215C108.027,52.215 110.287,54.476 110.287,57.265L110.287,65.495C110.289,66.617 111.484,67.964 113.031,67.72C128.043,64.183 139.254,50.689 139.254,34.614C139.254,15.858 123.996,0.599 105.238,0.599Z" style="fill:rgb(51,64,71);fill-rule:nonzero;"/>
            <path d="M10.5,103.085C11.6,104.485 13.15,105.185 15.15,105.185C16.9,105.185 18.5,104.735 19.95,103.935C20.35,103.685 20.8,103.585 21.2,103.585C21.4,103.585 21.6,103.585 21.75,103.635C21.95,103.685 22.1,103.785 22.3,103.885C22.45,103.985 22.55,104.135 22.7,104.285C22.8,104.435 22.9,104.585 23,104.735C23.1,104.935 23.15,105.085 23.2,105.285C23.25,105.485 23.3,105.685 23.3,105.885C23.3,106.735 22.95,107.485 22.2,108.085C21.5,108.685 20.4,109.235 19.05,109.635C17.65,110.035 16.1,110.235 14.4,110.235C10.85,110.235 7.85,109.085 5.5,106.785C3.15,104.485 1.95,101.435 1.95,97.585C1.95,95.285 2.5,93.135 3.55,91.235C4.6,89.285 6.1,87.785 8.05,86.685C9.95,85.585 12.15,85.035 14.55,85.035C16.1,85.035 17.5,85.235 18.75,85.635C20.05,86.035 21.05,86.535 21.85,87.085C22.2,87.385 22.5,87.735 22.7,88.085C22.9,88.435 22.95,88.835 22.95,89.185C22.95,89.785 22.75,90.335 22.35,90.785C21.95,91.235 21.45,91.435 20.85,91.435L20.45,91.435C20.35,91.435 20.3,91.385 20.25,91.385C20.15,91.385 20.1,91.335 20,91.335C19.95,91.285 19.9,91.285 19.8,91.235C19.75,91.185 19.65,91.185 19.6,91.135C18.15,90.385 16.7,90.035 15.35,90.035C14.35,90.035 13.45,90.185 12.65,90.535C11.85,90.885 11.15,91.385 10.6,92.035C10.05,92.685 9.6,93.485 9.3,94.385C9,95.335 8.85,96.385 8.85,97.585C8.85,99.835 9.4,101.635 10.5,103.085Z" style="fill:rgb(51,64,71);fill-rule:nonzero;"/>
            <path d="M43.375,103.636C44.425,102.186 44.975,100.236 44.975,97.686C44.975,95.086 44.425,93.086 43.375,91.636C42.325,90.236 40.775,89.486 38.775,89.486C36.825,89.486 35.275,90.236 34.225,91.636C33.125,93.086 32.625,95.086 32.625,97.686C32.625,100.186 33.175,102.186 34.225,103.636C35.275,105.036 36.825,105.736 38.775,105.736C40.775,105.736 42.275,105.036 43.375,103.636ZM33.025,109.236C31.325,108.536 29.925,107.636 28.925,106.436C27.875,105.286 27.075,103.986 26.525,102.486C25.975,100.986 25.725,99.386 25.725,97.686C25.725,95.986 25.975,94.386 26.525,92.886C27.075,91.386 27.825,90.036 28.875,88.886C29.925,87.686 31.275,86.786 32.975,86.086C34.675,85.386 36.625,85.036 38.775,85.036C40.925,85.036 42.825,85.386 44.475,86.036C46.175,86.686 47.525,87.586 48.575,88.736C49.625,89.886 50.425,91.236 51.025,92.736C51.575,94.286 51.875,95.886 51.875,97.686C51.875,99.336 51.575,100.886 51.025,102.386C50.525,103.886 49.725,105.186 48.675,106.386C47.675,107.586 46.275,108.486 44.575,109.186C42.875,109.886 40.975,110.236 38.775,110.236C36.625,110.236 34.725,109.886 33.025,109.236Z" style="fill:rgb(51,64,71);fill-rule:nonzero;"/>
            <path d="M57.375,108.886C56.775,108.236 56.525,107.236 56.525,105.936L56.525,89.236C56.525,87.986 56.775,87.036 57.375,86.386C57.975,85.736 58.775,85.436 59.875,85.436C60.875,85.436 61.725,85.686 62.375,86.286C62.975,86.836 63.325,87.636 63.325,88.686L63.325,89.686C64.675,86.586 67.325,85.036 71.325,85.036C75.475,85.036 78.075,86.836 79.175,90.386C80.775,86.836 83.675,85.036 87.975,85.036C90.525,85.036 92.625,85.836 94.175,87.386C95.775,88.986 96.575,91.236 96.575,94.286L96.575,105.936C96.575,107.236 96.275,108.236 95.675,108.886C95.075,109.586 94.275,109.936 93.125,109.936C92.075,109.936 91.275,109.586 90.675,108.886C90.075,108.236 89.775,107.236 89.775,105.936L89.775,94.436C89.775,92.886 89.375,91.636 88.625,90.786C87.825,89.936 86.775,89.486 85.475,89.486C83.875,89.486 82.525,90.086 81.475,91.236C80.425,92.386 79.925,94.036 79.925,96.086L79.925,105.936C79.925,107.236 79.625,108.236 79.025,108.886C78.425,109.586 77.575,109.936 76.475,109.936C75.425,109.936 74.575,109.586 74.025,108.886C73.425,108.236 73.125,107.236 73.125,105.936L73.125,94.736C73.125,93.036 72.725,91.736 71.975,90.836C71.225,89.936 70.175,89.486 68.825,89.486C67.175,89.486 65.825,90.036 64.825,91.086C63.825,92.186 63.325,93.636 63.325,95.486L63.325,105.936C63.325,107.236 63.025,108.236 62.375,108.886C61.775,109.586 60.925,109.936 59.775,109.936C58.725,109.936 57.925,109.586 57.375,108.886Z" style="fill:rgb(51,64,71);fill-rule:nonzero;"/>
            <path d="M103.225,118.086C102.625,117.386 102.375,116.436 102.375,115.136L102.375,89.586C102.375,88.286 102.675,87.286 103.275,86.536C103.875,85.786 104.725,85.436 105.775,85.436C106.825,85.436 107.625,85.736 108.225,86.286C108.825,86.886 109.125,87.686 109.125,88.736L109.125,89.386C110.625,86.486 113.325,85.036 117.175,85.036C120.375,85.036 122.925,86.186 124.875,88.536C126.825,90.886 127.775,93.936 127.775,97.786C127.775,101.686 126.775,104.736 124.775,106.936C122.725,109.136 120.125,110.236 116.875,110.236C113.175,110.236 110.625,108.886 109.125,106.236L109.125,115.136C109.125,116.436 108.825,117.386 108.225,118.086C107.625,118.736 106.775,119.086 105.625,119.086C104.575,119.086 103.775,118.736 103.225,118.086ZM117.975,105.086C118.775,104.686 119.375,104.036 119.825,103.286C120.275,102.536 120.625,101.686 120.825,100.736C121.075,99.786 121.175,98.786 121.175,97.636C121.175,96.686 121.075,95.736 120.875,94.836C120.675,93.936 120.375,93.086 119.975,92.236C119.525,91.386 118.925,90.736 118.125,90.236C117.325,89.736 116.375,89.486 115.325,89.486C113.125,89.486 111.525,90.186 110.575,91.586C109.625,92.936 109.175,94.986 109.175,97.686C109.175,100.136 109.675,102.086 110.725,103.586C111.725,105.036 113.275,105.736 115.275,105.736C116.275,105.736 117.175,105.536 117.975,105.086Z" style="fill:rgb(51,64,71);fill-rule:nonzero;"/>
            <path d="M131.239,100.386C131.489,99.586 131.889,98.886 132.439,98.286C133.039,97.736 133.689,97.236 134.489,96.886C135.239,96.536 136.239,96.236 137.489,96.036C138.689,95.836 139.989,95.686 141.389,95.636C142.739,95.536 144.389,95.486 146.339,95.486L146.339,93.736C146.339,90.936 144.989,89.536 142.189,89.536C141.289,89.536 140.339,89.686 139.339,89.886C138.339,90.136 137.589,90.336 137.089,90.486C136.589,90.636 135.939,90.936 135.139,91.236C135.039,91.286 134.939,91.336 134.889,91.336C134.789,91.386 134.689,91.386 134.589,91.386L134.389,91.386C133.739,91.386 133.239,91.136 132.839,90.636C132.389,90.086 132.189,89.536 132.189,88.886C132.189,88.486 132.289,88.136 132.489,87.786C132.689,87.436 132.989,87.186 133.389,86.986C136.089,85.686 139.139,85.036 142.539,85.036C144.089,85.036 145.489,85.236 146.689,85.586C147.889,85.936 148.989,86.486 149.889,87.236C150.839,87.986 151.539,88.986 152.089,90.286C152.589,91.536 152.839,93.086 152.839,94.836L152.839,106.586C152.839,107.636 152.489,108.486 151.889,109.086C151.289,109.686 150.539,109.936 149.739,109.936C149.189,109.936 148.689,109.836 148.189,109.586C147.089,108.986 146.589,107.986 146.589,106.536L146.589,105.836C146.039,107.286 145.089,108.336 143.789,109.086C142.489,109.836 140.989,110.236 139.239,110.236C136.789,110.236 134.789,109.586 133.239,108.336C131.639,107.086 130.889,105.386 130.889,103.236C130.889,102.136 130.989,101.186 131.239,100.386ZM142.489,105.736C143.239,105.386 143.839,104.986 144.439,104.386C144.989,103.836 145.439,103.136 145.789,102.286C146.139,101.486 146.339,100.586 146.339,99.636L146.339,98.836L143.689,98.836C142.989,98.886 142.239,98.886 141.539,98.986C140.789,99.036 140.239,99.136 139.789,99.236C139.339,99.336 138.889,99.486 138.489,99.686C138.089,99.886 137.789,100.136 137.539,100.386C137.339,100.686 137.139,100.986 137.039,101.386C136.939,101.786 136.839,102.186 136.839,102.686C136.839,103.786 137.189,104.636 137.789,105.286C138.439,105.886 139.289,106.186 140.339,106.186C141.089,106.186 141.789,106.036 142.489,105.736Z" style="fill:rgb(51,64,71);fill-rule:nonzero;"/>
            <path d="M159.453,108.886C158.903,108.236 158.603,107.236 158.603,105.936L158.603,88.886C158.603,87.736 158.903,86.886 159.503,86.286C160.103,85.736 160.953,85.436 162.053,85.436C163.103,85.436 163.903,85.736 164.503,86.286C165.053,86.886 165.353,87.736 165.353,88.886L165.353,89.436C166.853,86.486 169.603,85.036 173.653,85.036C176.103,85.036 178.153,85.836 179.753,87.486C181.353,89.086 182.153,91.386 182.153,94.386L182.153,105.936C182.153,107.236 181.853,108.236 181.253,108.886C180.653,109.586 179.753,109.936 178.653,109.936C177.603,109.936 176.753,109.586 176.203,108.886C175.653,108.236 175.353,107.236 175.353,105.936L175.353,94.436C175.353,92.886 174.953,91.636 174.103,90.786C173.303,89.936 172.253,89.486 171.003,89.486C169.453,89.486 168.153,90.086 167.053,91.286C165.953,92.536 165.403,94.086 165.403,95.986L165.403,105.936C165.403,107.236 165.103,108.236 164.503,108.886C163.903,109.586 163.003,109.936 161.903,109.936C160.853,109.936 160.003,109.586 159.453,108.886Z" style="fill:rgb(51,64,71);fill-rule:nonzero;"/>
            <path d="M192.34,120.336C191.54,120.336 190.84,120.086 190.19,119.486C189.54,118.886 189.24,118.186 189.24,117.286C189.24,116.786 189.34,116.286 189.59,115.786L194.34,106.286L185.64,89.986C185.39,89.486 185.24,88.986 185.24,88.486C185.24,87.686 185.59,86.986 186.24,86.386C186.89,85.836 187.64,85.536 188.49,85.536C188.69,85.536 188.94,85.586 189.14,85.586C189.34,85.636 189.54,85.736 189.74,85.836C189.94,85.936 190.14,86.036 190.34,86.186C190.54,86.286 190.69,86.486 190.89,86.686C191.04,86.886 191.19,87.136 191.29,87.386L197.64,99.636L203.79,87.336C204.14,86.636 204.59,86.086 205.09,85.736C205.64,85.386 206.19,85.186 206.79,85.186C207.59,85.186 208.29,85.486 208.84,86.036C209.44,86.586 209.74,87.286 209.74,88.136C209.74,88.386 209.69,88.686 209.64,88.936C209.59,89.236 209.49,89.486 209.34,89.786L195.04,118.486C194.44,119.736 193.54,120.336 192.34,120.336Z" style="fill:rgb(51,64,71);fill-rule:nonzero;"/>
        </g>
    </g>
</svg>
